<svg xmlns="http://www.w3.org/2000/svg" width="8.293" height="8.385" viewBox="0 0 8.293 8.385">
  <g id="Groupe_5759" data-name="Groupe 5759" transform="translate(528.902 -1079.966)">
    <path id="Tracé_1627" data-name="Tracé 1627" d="M15.109,4.881h-.042a4.072,4.072,0,0,0-1.089.635.58.58,0,0,1-.168.127.58.58,0,0,1-.168.127.041.041,0,0,0-.042.042,2.21,2.21,0,0,0-.419.466c-.042.042-.084.127-.126.169s-.084.127-.126.169a.323.323,0,0,0-.084.169c-.042.085-.084.127-.084.169a3.818,3.818,0,0,0-.335.974,1.6,1.6,0,0,1-.042.423c0,.169-.042.3-.042.466a1.754,1.754,0,0,0,.042.466.32.32,0,0,0,.042.212c0,.085.042.169.042.254a1.851,1.851,0,0,0,.042.212,2.8,2.8,0,0,0,.461,1.016c.042.042.042.085.084.085a3.515,3.515,0,0,0,.838.932c.126.085.251.212.377.3.042.042.084.042.084.085.042.042.126.085.168.127a.041.041,0,0,1,.042.042h.042c.042,0,.042.042.084.042.084.042.126.042.168.085a4.182,4.182,0,1,0,1.633-8.046A3.813,3.813,0,0,0,15.109,4.881Zm1.55.847h.084a.374.374,0,0,1,.209.042,1.8,1.8,0,0,1,.209.042c.084.042.209.042.293.085.084,0,.126.042.209.085.042.042.126.042.209.085.042.042.126.085.168.127a.578.578,0,0,1,.168.127,1.642,1.642,0,0,1,.419.339,3.056,3.056,0,0,1,.88,2.16v.3c0,.085-.042.169-.042.254v.085c0,.042-.042.085-.042.169,0,.042,0,.042-.042.085-.042.085-.042.169-.084.254s-.042.127-.084.212a.041.041,0,0,1-.042.042c0,.042,0,.042-.042.042,0,.042,0,.042-.042.042-.042.042-.042.085-.084.127s-.042.085-.084.127-.084.127-.126.169-.084.127-.168.169a4.46,4.46,0,0,1-.461.381c-.042.042-.084.042-.126.085s-.084.042-.126.085h-.042l-.251.127a2.016,2.016,0,0,1-.293.127,3.153,3.153,0,0,1-.88.127,3.449,3.449,0,0,1-.921-.127,2.044,2.044,0,0,0-.293-.127l-.251-.127c-.042,0-.084-.042-.126-.085s-.084-.042-.126-.085a.915.915,0,0,1-.209-.169c-.084-.042-.126-.127-.209-.212l-.168-.169c-.042-.042-.084-.127-.126-.169s-.042-.085-.084-.127a.221.221,0,0,1-.084-.169v-.042a.157.157,0,0,1-.042-.127c-.042-.085-.084-.127-.084-.212a.606.606,0,0,1-.084-.254c-.042-.085-.042-.212-.084-.3a.727.727,0,0,1-.042-.3V8.4c0-.085.042-.169.042-.254a.157.157,0,0,1,.042-.127V7.972c0-.042.042-.127.042-.169.042-.085.042-.169.084-.254a.132.132,0,0,1,.042-.085c.042-.042.042-.127.084-.169V7.252a.148.148,0,0,1,.042-.085.148.148,0,0,0,.042-.085.041.041,0,0,1,.042-.042c.042-.042.042-.085.084-.127s.042-.085.084-.127.042-.085.084-.085c.042-.042.084-.085.084-.127l.042-.042a1.643,1.643,0,0,1,.419-.339c.042-.042.126-.085.168-.127s.126-.042.168-.085c.042,0,.042,0,.084-.042s.126-.042.168-.085c.084-.042.126-.042.209-.085a2.655,2.655,0,0,1,.293-.085c.042,0,.084-.042.168-.042A.25.25,0,0,0,16.2,5.6h.419C16.617,5.728,16.659,5.728,16.659,5.728Z" transform="translate(-541.247 1075.339)" fill="#868e96"/>
  </g>
</svg>
