<svg id="hurry" xmlns="http://www.w3.org/2000/svg" width="22" height="19.98" viewBox="0 0 22 19.98">
  <g id="Groupe_5464" data-name="Groupe 5464" transform="translate(0 2.578)">
    <g id="Groupe_5463" data-name="Groupe 5463" transform="translate(0 0)">
      <path id="Tracé_1537" data-name="Tracé 1537" d="M21.355,99.6H15.548l1.187-4.748a1.293,1.293,0,0,0-.508-1.48l-2.921-1.947,2.07-4.138a1.294,1.294,0,0,0-1.153-1.866H13.38L8.661,83.532a.645.645,0,1,0-.478,1.2l1.892.757a1.29,1.29,0,0,0-.3.07l-2.4,1.2-1.023-2.1a.643.643,0,0,0-.862-.3L.864,86.62a.644.644,0,0,0-.3.862l2.825,5.793a.645.645,0,0,0,.862.3L8.89,91.31a.644.644,0,0,0,.3-.862l-.672-1.377L10.659,88h1.477l-1.645,3.291a1.292,1.292,0,0,0,.438,1.649l3.048,2.032L13,99.192a1.267,1.267,0,0,0-.051.407H.645a.645.645,0,0,0,0,1.289H21.355a.645.645,0,0,0,0-1.289Z" transform="translate(0 -83.486)" fill="#aebaca"/>
    </g>
  </g>
  <g id="Groupe_5466" data-name="Groupe 5466" transform="translate(3.91 12.37)">
    <g id="Groupe_5465" data-name="Groupe 5465">
      <path id="Tracé_1538" data-name="Tracé 1538" d="M97.3,312.122a2.555,2.555,0,0,1-.718-.732l-.141.282L91.57,314.06A1.289,1.289,0,0,0,93,316.205l5.157-2.578a1.3,1.3,0,0,0,.438-.5l.055-.11Z" transform="translate(-90.996 -311.39)" fill="#aebaca"/>
    </g>
  </g>
  <g id="Groupe_5468" data-name="Groupe 5468" transform="translate(15.537 6.458)">
    <g id="Groupe_5467" data-name="Groupe 5467" transform="translate(0 0)">
      <path id="Tracé_1539" data-name="Tracé 1539" d="M365.42,174.423h-2.044l-.632-.632a2.573,2.573,0,0,1-.174.5l-.992,1.983.353.353a1.28,1.28,0,0,0,.911.378h2.578a1.289,1.289,0,0,0,0-2.578Z" transform="translate(-361.578 -173.791)" fill="#aebaca"/>
    </g>
  </g>
  <g id="Groupe_5470" data-name="Groupe 5470" transform="translate(14.867)">
    <g id="Groupe_5469" data-name="Groupe 5469">
      <path id="Tracé_1540" data-name="Tracé 1540" d="M347.934,23.5a1.934,1.934,0,1,0,1.934,1.934A1.936,1.936,0,0,0,347.934,23.5Z" transform="translate(-346 -23.5)" fill="#aebaca"/>
    </g>
  </g>
</svg>
