<svg xmlns="http://www.w3.org/2000/svg" width="25.024" height="24" viewBox="0 0 25.024 24">
  <g id="Groupe_5744" data-name="Groupe 5744" transform="translate(-0.225 2.492)">
    <g id="Union_88" data-name="Union 88" transform="translate(0.225 -2.492)" fill="none">
      <path d="M2.721,22l.459-4.081A9.92,9.92,0,0,1,0,10.758C0,4.817,5.6,0,12.513,0S25.024,4.817,25.024,10.758s-5.6,10.756-12.511,10.756a14.518,14.518,0,0,1-2.843-.279L5.4,23.749A1.767,1.767,0,0,1,4.5,24,1.794,1.794,0,0,1,2.721,22Z" stroke="none"/>
      <path d="M 4.499955654144287 23 C 4.635555267333984 23 4.768265247344971 22.96229934692383 4.894525527954102 22.88788986206055 L 9.491525650024414 20.17971038818359 L 9.865935325622559 20.25444984436035 C 10.72817516326904 20.42658996582031 11.61872577667236 20.51387023925781 12.51284503936768 20.51387023925781 C 18.86022567749023 20.51387023925781 24.02419471740723 16.13726043701172 24.02419471740723 10.75767993927002 C 24.02419471740723 5.377280235290527 18.86022567749023 1 12.51284503936768 1 C 6.164645671844482 1 1.000005483627319 5.377280235290527 1.000005483627319 10.75767993927002 C 1.000005483627319 13.13129997253418 2.020325422286987 15.41991996765137 3.873025417327881 17.20195960998535 L 4.228715419769287 17.54409027099609 L 3.714295387268066 22.11520957946777 C 3.681255340576172 22.40871047973633 3.799155473709106 22.61000061035156 3.903885364532471 22.72718048095703 C 4.056585311889648 22.89801979064941 4.27940559387207 23.00000953674316 4.499945640563965 23 L 4.499955654144287 23 M 4.499985218048096 24 C 3.498155355453491 24.00004005432129 2.593515396118164 23.13187980651855 2.720575332641602 22.00333023071289 L 3.179795503616333 17.92267990112305 C 1.202185392379761 16.0204906463623 5.451354809338227e-06 13.50994968414307 5.451354809338227e-06 10.75767993927002 C 5.451354809338227e-06 4.816559791564941 5.601805686950684 2.71606435120475e-08 12.51284503936768 2.71606435120475e-08 C 19.42238616943359 2.71606435120475e-08 25.02419471740723 4.816559791564941 25.02419471740723 10.75767993927002 C 25.02419471740723 16.69881057739258 19.42238616943359 21.51387023925781 12.51284503936768 21.51387023925781 C 11.53507518768311 21.51387023925781 10.58335590362549 21.41740989685059 9.67015552520752 21.23509979248047 L 5.402115345001221 23.74949073791504 C 5.109485626220703 23.92194938659668 4.800345420837402 23.99999046325684 4.499985218048096 24 Z" stroke="none" fill="#29bdef"/>
    </g>
    <text id="_2" data-name="2" transform="translate(8.225 13.508)" fill="#29bdef" font-size="14" font-family="Lato-Regular, Lato"><tspan x="0" y="0">2</tspan></text>
  </g>
</svg>
