<svg xmlns="http://www.w3.org/2000/svg"  width="18" height="18" viewBox="0 0 18 18">
  <path id="Tracé_1592" data-name="Tracé 1592" d="M16.869,15.668V8.25a1.326,1.326,0,0,0-.46-1L10.583,2.114l-.9-.8a1.043,1.043,0,0,0-1.368,0l-.9.8L1.59,7.25a1.326,1.326,0,0,0-.46,1v7.425a1.3,1.3,0,0,0,1.342,1.264H15.524A1.309,1.309,0,0,0,16.869,15.668Zm.671-8.88a1.326,1.326,0,0,1,.46,1v7.883A2.407,2.407,0,0,1,15.524,18H2.476A2.407,2.407,0,0,1,0,15.668V7.786a1.326,1.326,0,0,1,.46-1L1.131,6.2,5.759,2.114,6.965,1.049,7.541.542a2.234,2.234,0,0,1,2.917,0l.577.508,1.206,1.065L16.869,6.2ZM7.315,8.815v-1a.4.4,0,0,0-.407-.383h-1.5A.4.4,0,0,0,5,7.814v1a.394.394,0,0,0,.407.383h1.5A.394.394,0,0,0,7.315,8.815ZM6.908,6.366A1.5,1.5,0,0,1,8.446,7.814v1a1.5,1.5,0,0,1-1.538,1.448h-1.5A1.5,1.5,0,0,1,3.87,8.815v-1A1.5,1.5,0,0,1,5.408,6.366ZM13,8.815v-1a.4.4,0,0,0-.407-.383H11.1a.4.4,0,0,0-.407.383v1A.394.394,0,0,0,11.1,9.2h1.5A.394.394,0,0,0,13,8.815ZM12.6,6.366a1.5,1.5,0,0,1,1.538,1.448v1A1.5,1.5,0,0,1,12.6,10.263H11.1A1.5,1.5,0,0,1,9.558,8.815v-1A1.5,1.5,0,0,1,11.1,6.366ZM7.308,13.777v-1a.4.4,0,0,0-.407-.383H5.4a.4.4,0,0,0-.407.383v1a.4.4,0,0,0,.407.383H6.9A.394.394,0,0,0,7.308,13.777ZM6.9,11.328a1.5,1.5,0,0,1,1.538,1.448v1A1.5,1.5,0,0,1,6.9,15.225H5.4a1.5,1.5,0,0,1-1.537-1.448v-1A1.5,1.5,0,0,1,5.4,11.328ZM13,13.777v-1a.4.4,0,0,0-.407-.383h-1.5a.4.4,0,0,0-.407.383v1a.4.4,0,0,0,.407.383h1.5A.4.4,0,0,0,13,13.777Zm-.407-2.449a1.5,1.5,0,0,1,1.538,1.448v1a1.5,1.5,0,0,1-1.538,1.448h-1.5A1.5,1.5,0,0,1,9.55,13.777v-1a1.5,1.5,0,0,1,1.538-1.448Z" fill="#596066"/>
</svg>
