<svg xmlns="http://www.w3.org/2000/svg" width="13.091" height="13.091" viewBox="0 0 13.091 13.091">
  <g id="Tracé_539" data-name="Tracé 539" transform="translate(13.091) rotate(90)" fill="none">
    <path d="M2.455,0h8.182a2.455,2.455,0,0,1,2.455,2.455v8.182a2.455,2.455,0,0,1-2.455,2.455H2.455A2.455,2.455,0,0,1,0,10.636V2.455A2.455,2.455,0,0,1,2.455,0Z" stroke="none"/>
    <path d="M 2.454536437988281 0.9999961853027344 C 1.652496337890625 0.9999961853027344 0.9999961853027344 1.652496337890625 0.9999961853027344 2.454536437988281 L 0.9999961853027344 10.63633632659912 C 0.9999961853027344 11.43837642669678 1.652496337890625 12.09087657928467 2.454536437988281 12.09087657928467 L 10.63633632659912 12.09087657928467 C 11.43837642669678 12.09087657928467 12.09087657928467 11.43837642669678 12.09087657928467 10.63633632659912 L 12.09087657928467 2.454536437988281 C 12.09087657928467 1.652496337890625 11.43837642669678 0.9999961853027344 10.63633632659912 0.9999961853027344 L 2.454536437988281 0.9999961853027344 M 2.454536437988281 -3.814697265625e-06 L 10.63633632659912 -3.814697265625e-06 C 11.99193668365479 -3.814697265625e-06 13.09087657928467 1.098936080932617 13.09087657928467 2.454536437988281 L 13.09087657928467 10.63633632659912 C 13.09087657928467 11.99193668365479 11.99193668365479 13.09087657928467 10.63633632659912 13.09087657928467 L 2.454536437988281 13.09087657928467 C 1.098936080932617 13.09087657928467 -3.814697265625e-06 11.99193668365479 -3.814697265625e-06 10.63633632659912 L -3.814697265625e-06 2.454536437988281 C -3.814697265625e-06 1.098936080932617 1.098936080932617 -3.814697265625e-06 2.454536437988281 -3.814697265625e-06 Z" stroke="none" fill="currentcolor"/>
  </g>
</svg>
