<svg xmlns="http://www.w3.org/2000/svg" width="43.842" height="42.75" viewBox="0 0 43.842 42.75">
  <path id="Union_91" data-name="Union 91" d="M12.072,13.246a1.434,1.434,0,1,1,1.435,1.5A1.47,1.47,0,0,1,12.072,13.246Zm-5.692,0a1.432,1.432,0,1,1,1.431,1.5A1.467,1.467,0,0,1,6.38,13.246Zm-5.7,0a1.469,1.469,0,0,1,1.435-1.5,1.5,1.5,0,0,1,0,3A1.471,1.471,0,0,1,.683,13.246ZM12.05,6.94a1.433,1.433,0,1,1,2.863,0,1.433,1.433,0,1,1-2.863,0Zm-5.688,0a1.433,1.433,0,1,1,2.863,0,1.433,1.433,0,1,1-2.863,0Zm-5.689,0A1.464,1.464,0,0,1,2.1,5.441a1.5,1.5,0,0,1,0,3A1.467,1.467,0,0,1,.673,6.94ZM1.36,2.72A1.36,1.36,0,1,1,1.36,0H14.482a1.36,1.36,0,1,1,0,2.72Z" transform="translate(14 14)" fill="currentcolor" />
</svg>
